<svg xmlns="http://www.w3.org/2000/svg" viewBox="0 0 406 406">
  <defs>
		<radialGradient id="Gradient"	cx="50%" cy="50%" r="50%" fx="50%" fy="50%" gradientUnits="userSpaceOnUse">
			<stop offset="0%" stop-color="#D700B9"/>
			<stop offset="100%" stop-color="#D076FF"/>
		</radialGradient>
  </defs>
	<g id="border">
		<circle id="circle" fill="none" stroke="#000000" stroke-width="7" stroke-linecap="round" stroke-linejoin="round" stroke-miterlimit="10" cx="203.5" cy="203.5" r="198"/>
	</g>
	<g id="vi_t">
		<g id="t">
			<path id="t_leg" data-start="180" data-duration="15" fill="none" stroke="#000000" stroke-width="4" stroke-linecap="round" stroke-linejoin="round" stroke-miterlimit="10" d="M260,230c-17,195,55.5,107.5,55.5,71.5"/>
			<path id="cross" data-start="195" data-duration="5" fill="none" stroke="#000000" stroke-width="3" stroke-linecap="round" stroke-linejoin="round" stroke-miterlimit="10" d="M235.5,256.5c17,0,50,0.9,70,2"/>
		</g>
		<g id="i">
			<path data-start="150" data-duration="20" fill="none" stroke="#000000" stroke-width="4" stroke-linecap="round" stroke-linejoin="round" stroke-miterlimit="10" d="M158.5,313.5c-9,56-41,53-39,7c0.9-21,2-37,1-51"/>
			<circle id="i_dot" class="shape" data-start="170" data-duration="10" fill="#000000" stroke="#000000" stroke-linecap="round" stroke-linejoin="round" stroke-miterlimit="10" cx="118.5" cy="253.5" r="6"/>
		</g>
		<path id="V" data-start="130" data-duration="20" fill="none" stroke="#000000" stroke-width="4" stroke-linecap="round" stroke-linejoin="round" stroke-miterlimit="10" d="M40.5,175.5c20.4,40.8,36.1,89.4,49,147"/>
	</g>
	<g id="els">
		<path id="s" data-start="60" data-duration="20" fill="none" stroke="#000000" stroke-width="6" stroke-linecap="round" stroke-linejoin="round" stroke-miterlimit="10" d="M246.5,124.5c-20-50-57.3,36.3-12,18c28.5-11.5,36,92-17,90c-30-1.1-33-45-33-45"/>
		<path id="l" data-start="40" data-duration="20" fill="none" stroke="#000000" stroke-width="6" stroke-linecap="round" stroke-linejoin="round" stroke-miterlimit="10" d="M188.5,135.5c101-93,10.7-128.6,5-74c-6,58-12.4,190-18,253c-6,68,43,80,59,2"/>
		<path id="e" data-start="20" data-duration="20" fill="none" stroke="#000000" stroke-width="6" stroke-linecap="round" stroke-linejoin="round" d="M160.5,142.5c9-58-43.9-47-43,7C119,242,168,245,185,192"/>
	</g>
	<g id="p_kes">
		<path id="s_last" data-start="110" data-duration="20" fill="none" stroke="#000000" stroke-width="4" stroke-linecap="round" stroke-linejoin="round" stroke-miterlimit="10" d="M340.5,116.5c-20-50-59.5,35.7-14,18c42.5-16.5,53.5,129.3,8,130c-30.5,0.5-30-43-30-43"/>
		<path id="e_last" data-start="90" data-duration="20" fill="none" stroke="#000000" stroke-width="4" stroke-linecap="round" stroke-linejoin="round" stroke-miterlimit="10" d="M289.3,191.8c23.3,0.1,41.1-6,41.1-6c-9.3-46.1-51.6-36.1-38.7,19.8"/>
		<g id="k">
			<path id="leg_left" data-start="60" data-duration="10" fill="none" stroke="#000000" stroke-width="4" stroke-linecap="round" stroke-linejoin="round" stroke-miterlimit="10" d="M264.5,47.5c-26,6,2,73-5,186"/>
			<path id="leg_right" data-start="80" data-duration="10" fill="none" stroke="#000000" stroke-width="4" stroke-linecap="round" stroke-linejoin="round" stroke-miterlimit="10" d="M333.5,199.5c-4,34.8-37.9,24.5-43,2c-7.6-33.6,8-82-29.9-52"/>
			<path id="top_curl" data-start="70" data-duration="10" fill="none" stroke="#000000" stroke-width="4" stroke-linecap="round" stroke-linejoin="round" stroke-miterlimit="10" d="M261.8,147c39.7-24.5,31.7-70.5-4.3-34.5"/>
		</g>
		<path id="P" data-start="0" data-duration="20" fill="none" stroke="#000000" stroke-width="4" stroke-linecap="round" stroke-linejoin="round" stroke-miterlimit="10" d="M89.5,322.5c15-162-1.6-240,2-244C161,0,245,176,95.5,149.5"/>
	</g>
</svg>
