<svg xmlns="http://www.w3.org/2000/svg" viewBox="0 0 363 363">
	<circle fill="none" stroke="#000" stroke-width="3" stroke-linecap="round" stroke-linejoin="round" stroke-miterlimit="10" cx="181.5" cy="181.5" r="178"/>
	<g fill="none" stroke="#000" stroke-linecap="round" stroke-linejoin="round" stroke-miterlimit="10">
		<path stroke-width="4" d="M238 208c-17 195 55.5 107.5 55.5 71.5"/>
		<path stroke-width="3" d="M213.5 234.5c17 0 50 .9 70 2"/>
	</g>
	<path fill="none" stroke="#000" stroke-width="4" stroke-linecap="round" stroke-linejoin="round" stroke-miterlimit="10" d="M98.5 247.5c1 14-.1 30-1 51-2 46 30 49 39-7"/>
	<circle stroke="#000" stroke-linecap="round" stroke-linejoin="round" stroke-miterlimit="10" cx="96.5" cy="231.5" r="6"/>
	<path fill="none" stroke="#000" stroke-width="4" stroke-linecap="round" stroke-linejoin="round" stroke-miterlimit="10" d="M18.5 153.5c20.4 40.8 36.1 89.4 49 147"/>
	<g>
		<path fill="none" stroke="#000" stroke-width="6" stroke-linecap="round" stroke-linejoin="round" stroke-miterlimit="10" d="M224.5 102.5c-20-50-57.3 36.3-12 18 28.5-11.5 17 92-17 90-29.9-1.8-19-47-19-47"/>
		<path fill="none" stroke="#000" stroke-width="6" stroke-linecap="round" stroke-linejoin="round" stroke-miterlimit="10" d="M166.5 113.5c101-93 10.7-128.6 5-74-6 58-12.4 190-18 253-6 68 43 80 59 2"/>
		<path fill="none" stroke="#000" stroke-width="6" stroke-linecap="round" stroke-linejoin="round" d="M138.5 120.5c9-58-41-47-43 7-4.1 111 53 93 53 36"/>
	</g>
	<g>
		<path fill="none" stroke="#000" stroke-width="4" stroke-linecap="round" stroke-linejoin="round" stroke-miterlimit="10" d="M318.5 94.5c-20-50-59.5 35.7-14 18 42.5-16.5 53.5 130.5 8 130-30-.3-30-33-30-33"/>
		<path fill="none" stroke="#000" stroke-width="4" stroke-linecap="round" stroke-linejoin="round" stroke-miterlimit="10" d="M267.3 169.8c23.3.1 41.1-6 41.1-6-9.3-46.1-51.6-36.1-38.7 19.8M242.5 25.5c-26 6 2 73-5 186"/>
		<path fill="none" stroke="#000" stroke-width="4" stroke-linecap="round" stroke-linejoin="round" stroke-miterlimit="10" d="M311.5 177.5c-4 34.8-37.9 24.5-43 2-7.6-33.6 8-82-29.9-52M239.8 125c39.7-24.5 31.7-70.5-4.3-34.5"/>
		<g>
			<path fill="none" stroke="#000" stroke-width="4" stroke-linecap="round" stroke-linejoin="round" stroke-miterlimit="10" d="M67.5 300.5c15-162-1.6-240 2-244 69.5-78.5 153.5 97.5 4 71"/>
		</g>
	</g>
</svg>