<svg xmlns="http://www.w3.org/2000/svg" viewBox="0 0 363 363">
	<g id="border">
		<circle id="circle" data-start="200" data-duration="20" fill="none" stroke="#000000" stroke-width="4" stroke-linecap="round" stroke-linejoin="round" stroke-miterlimit="10" cx="181.5" cy="181.5" r="178"/>
	</g>
	<g id="vi_t">
		<g id="t">
			<path id="t_leg" data-start="180" data-duration="15" fill="none" stroke="#000000" stroke-width="4" stroke-linecap="round" stroke-linejoin="round" stroke-miterlimit="10" d="M238,208c-17,195,55.5,107.5,55.5,71.5"/>
			<path id="cross" data-start="195" data-duration="5" fill="none" stroke="#000000" stroke-width="3" stroke-linecap="round" stroke-linejoin="round" stroke-miterlimit="10" d="M213.5,234.5c17,0,50,0.9,70,2"/>
		</g>
		<g id="i">
			<path data-start="150" data-duration="20" fill="none" stroke="#000000" stroke-width="4" stroke-linecap="round" stroke-linejoin="round" stroke-miterlimit="10" d="M98.5,247.5c1,14-0.1,30-1,51c-2,46,30,49,39-7"/>
		</g>
		<circle id="i_dot" class="shape" data-start="170" data-duration="10" fill="#000000" stroke="#000000" stroke-linecap="round" stroke-linejoin="round" stroke-miterlimit="10" cx="96.5" cy="231.5" r="6"/>
		<g id="V">
			<path data-start="130" data-duration="20" fill="none" stroke="#000000" stroke-width="4" stroke-linecap="round" stroke-linejoin="round" stroke-miterlimit="10" d="M18.5,153.5c20.4,40.8,36.1,89.4,49,147"/>
		</g>
	</g>
	<g id="els">
		<g id="s">
			<path data-start="60" data-duration="20" fill="none" stroke="#000000" stroke-width="6" stroke-linecap="round" stroke-linejoin="round" stroke-miterlimit="10" d="M224.5,102.5c-20-50-57.3,36.3-12,18c28.5-11.5,17,92-17,90c-29.9-1.8-19-47-19-47"/>
		</g>
		<g id="l">
			<path data-start="40" data-duration="20" fill="none" stroke="#000000" stroke-width="6" stroke-linecap="round" stroke-linejoin="round" stroke-miterlimit="10" d="M166.5,113.5c101-93,10.7-128.6,5-74c-6,58-12.4,190-18,253c-6,68,43,80,59,2"/>
		</g>
		<g id="e">
			<path data-start="20" data-duration="20" fill="none" stroke="#000000" stroke-width="6" stroke-linecap="round" stroke-linejoin="round" d="M138.5,120.5 c9-58-41-47-43,7c-4.1,111,53,93,53,36"/>
		</g>
	</g>
	<g id="p_kes">
		<g id="s_last">
			<path data-start="110" data-duration="20" fill="none" stroke="#000000" stroke-width="4" stroke-linecap="round" stroke-linejoin="round" stroke-miterlimit="10" d="M318.5,94.5c-20-50-59.5,35.7-14,18c42.5-16.5,53.5,130.5,8,130c-30-0.3-30-33-30-33"/>
		</g>
		<g id="e_last">
			<path data-start="90" data-duration="20" fill="none" stroke="#000000" stroke-width="4" stroke-linecap="round" stroke-linejoin="round" stroke-miterlimit="10" d="M267.3,169.8c23.3,0.1,41.1-6,41.1-6c-9.3-46.1-51.6-36.1-38.7,19.8"/>
		</g>
		<g id="k">
			<g id="leg_left">
				<path data-start="60" data-duration="10" fill="none" stroke="#000000" stroke-width="4" stroke-linecap="round" stroke-linejoin="round" stroke-miterlimit="10" d="M242.5,25.5c-26,6,2,73-5,186"/>
			</g>
			<g id="leg_right">
				<path data-start="80" data-duration="10" fill="none" stroke="#000000" stroke-width="4" stroke-linecap="round" stroke-linejoin="round" stroke-miterlimit="10" d="M311.5,177.5c-4,34.8-37.9,24.5-43,2c-7.6-33.6,8-82-29.9-52"/>
			</g>
			<g id="top_curl">
				<path data-start="70" data-duration="10" fill="none" stroke="#000000" stroke-width="4" stroke-linecap="round" stroke-linejoin="round" stroke-miterlimit="10" d="M239.8,125c39.7-24.5,31.7-70.5-4.3-34.5"/>
			</g>
		</g>
		<g id="P">
			<path data-start="0" data-duration="20" fill="none" stroke="#000000" stroke-width="4" stroke-linecap="round" stroke-linejoin="round" stroke-miterlimit="10" d="M67.5,300.5c15-162-1.6-240,2-244c69.5-78.5,153.5,97.5,4,71"/>
		</g>
	</g>
</svg>
