<svg xmlns="http://www.w3.org/2000/svg" viewBox="0 0 475 504">
  <defs>
		<radialGradient id="Gradient"	cx="50%" cy="50%" r="50%" fx="50%" fy="50%" gradientUnits="userSpaceOnUse">
			<stop offset="0%" stop-color="#D700B9"/>
			<stop offset="100%" stop-color="#D076FF"/>
		</radialGradient>
  </defs>
	<g id="border">
    <path id="vine_R1" class="vines" data-start="0" data-duration="200" fill="none" stroke="#000" stroke-width="2" stroke-miterlimit="10" d="M248.3,481.4c12.1,0,12.1,13.2,6.6,17.6c-5,4-17.5,1.1-18.7-8.8c-3.3-26.4,21.4-28.2,56.1-8.8C322,498,361,486,365.4,446.7c3.7-32.9,18.7-63.1,59.5-67.1c45.1-4.4,57.4-66.3,24.6-101.8c-26.4-28.6-30.6-48.6-6.6-111.1C461,120,418,53,370,75c-50.4,23.1-147.6,2.1-147.6-29.8c0-18.7,36.3-20.9,13.2-42.9" />
    <path id="vine_R2" class="vines" data-start="10" data-duration="170" fill="none" stroke="#000" stroke-width="2" stroke-miterlimit="10" d="M242,471c37-28,211.4,55.5,183-96.9c-9-48.1-6-69.1,24.2-95.7c44.2-38.9,15.8-89.4-11-102.3c-43.4-20.8-68.2-41.8-68.9-101.2c-9.2-72.6-83.4,25.3-132.9-9.1"/>
    <path id="vine_L1" class="vines" data-start="0" data-duration="200" fill="none" stroke="#000" stroke-width="2" stroke-miterlimit="10" d="M223.1,481.4c-12.1,0-12.1,13.2-6.6,17.6c5,4,17.5,1.1,18.7-8.8c3.3-26.4-21.7-28.6-56.1-8.8c-27.1,15.6-67.6,8.3-73.1-34.6c-4.2-32.8-24.6-64.7-65.4-68.8c-33-3.3-51.5-64.6-18.7-100.1c26.4-28.6,33.3-49.7,6.6-111.1C4.8,112.3,68.6,54,115.9,79.3C157.3,101.5,249,77.1,249,45.2c0-18.7-36.3-20.9-13.2-42.9"/>
    <path id="vine_L2" class="vines" data-start="10" data-duration="170" fill="none" stroke="#000" stroke-width="2" stroke-miterlimit="10" d="M225,469c-62-26-204.5,50.5-174-107c6-31,6-63-25.3-88c-44.7-35.7-15.4-91.3,15.4-100.1c41.7-11.9,61.6-40.7,63.8-99c5.5-68.2,81.4,25.3,130.9-9.1"/>
	</g>
	<g id="vi_t">
		<g id="t">
			<path id="t_leg" data-start="180" data-duration="15" fill="none" stroke="#000000" stroke-width="4" stroke-linecap="round" stroke-linejoin="round" stroke-miterlimit="10" d="M293,296c-17,195,55.5,107.5,55.5,71.5"/>
			<path id="cross" data-start="195" data-duration="5" fill="none" stroke="#000000" stroke-width="3" stroke-linecap="round" stroke-linejoin="round" stroke-miterlimit="10" d="M268.5,322.5c17,0,50,0.9,70,2"/>
		</g>
		<g id="i">
			<path data-start="150" data-duration="20" fill="none" stroke="#000000" stroke-width="4" stroke-linecap="round" stroke-linejoin="round" stroke-miterlimit="10" d="M191.5,379.5c-9,56-41,53-39,7c0.9-21,2-37,1-51"/>
			<circle id="i_dot" class="shape" data-start="170" data-duration="10" fill="#000000" stroke="#000000" stroke-linecap="round" stroke-linejoin="round" stroke-miterlimit="10" cx="151.5" cy="319.5" r="6"/>
		</g>
		<path id="V" data-start="130" data-duration="20" fill="none" stroke="#000000" stroke-width="4" stroke-linecap="round" stroke-linejoin="round" stroke-miterlimit="10" d="M73.5,241.5c20.4,40.8,36.1,89.4,49,147"/>
	</g>
	<g id="els">
		<path id="s" data-start="60" data-duration="20" fill="none" stroke="#000000" stroke-width="6" stroke-linecap="round" stroke-linejoin="round" stroke-miterlimit="10" d="M279.5,190.5c-20-50-57.3,36.3-12,18c28.5-11.5,36,92-17,90c-30-1.1-33-45-33-45"/>
		<path id="l" data-start="40" data-duration="20" fill="none" stroke="#000000" stroke-width="6" stroke-linecap="round" stroke-linejoin="round" stroke-miterlimit="10" d="M221.5,201.5c101-93,10.7-128.6,5-74c-6,58-12.4,190-18,253c-6,68,43,80,59,2"/>
		<path id="e" data-start="20" data-duration="20" fill="none" stroke="#000000" stroke-width="6" stroke-linecap="round" stroke-linejoin="round" d="M193.5,208.5c9-58-43.9-47-43,7C152,308,201,311,218,258"/>
	</g>
	<g id="p_kes">
		<path id="s_last" data-start="110" data-duration="20" fill="none" stroke="#000000" stroke-width="4" stroke-linecap="round" stroke-linejoin="round" stroke-miterlimit="10" d="M373.5,182.5c-20-50-59.5,35.7-14,18c42.5-16.5,53.5,129.3,8,130c-30.5,0.5-30-43-30-43"/>
		<path id="e_last" data-start="90" data-duration="20" fill="none" stroke="#000000" stroke-width="4" stroke-linecap="round" stroke-linejoin="round" stroke-miterlimit="10" d="M322.3,257.8c23.3,0.1,41.1-6,41.1-6c-9.3-46.1-51.6-36.1-38.7,19.8"/>
		<g id="k">
			<path id="leg_left" data-start="60" data-duration="10" fill="none" stroke="#000000" stroke-width="4" stroke-linecap="round" stroke-linejoin="round" stroke-miterlimit="10" d="M297.5,113.5c-26,6,2,73-5,186"/>
			<path id="leg_right" data-start="80" data-duration="10" fill="none" stroke="#000000" stroke-width="4" stroke-linecap="round" stroke-linejoin="round" stroke-miterlimit="10" d="M366.5,265.5c-4,34.8-37.9,24.5-43,2c-7.6-33.6,8-82-29.9-52"/>
			<path id="top_curl" data-start="70" data-duration="10" fill="none" stroke="#000000" stroke-width="4" stroke-linecap="round" stroke-linejoin="round" stroke-miterlimit="10" d="M294.8,213c39.7-24.5,31.7-70.5-4.3-34.5"/>
		</g>
		<path id="P" data-start="0" data-duration="20" fill="none" stroke="#000000" stroke-width="4" stroke-linecap="round" stroke-linejoin="round" stroke-miterlimit="10" d="M122.5,388.5c15-162-1.6-240,2-244c69.5-78.5,153.5,97.5,4,71"/>
	</g>
</svg>
