<svg xmlns="http://www.w3.org/2000/svg" viewBox="0 0 100 30">
  <g id="green">
    <path id="stem" d="M99.5,16.5c-37.27,9.76-62.72-9.61-86.15-4.32" fill="none" stroke="#0a5977" stroke-miterlimit="10"/>
    <path id="leaf" d="M93.67,16.78c-2.54,2.08-7-4.63-7-8.51C88.6,6.71,97.48,12.35,93.67,16.78Z" fill="none" stroke="#0a5977" stroke-miterlimit="10"/>
    <path id="leaf-2" d="M93.67,19.4c-2.54-2.09-7,4.62-7,8.5C88.6,29.47,97.48,23.82,93.67,19.4Z" fill="none" stroke="#0a5977" stroke-miterlimit="10"/>
    <path id="leaf-3" d="M73.48,17.9c-2.62,2-6.79-4.9-6.63-8.78C68.82,7.63,77.47,13.63,73.48,17.9Z" fill="none" stroke="#0a5977" stroke-miterlimit="10"/>
    <path id="leaf-4" d="M72.48,20.24c-2.62-2-6.79,4.9-6.63,8.78C67.82,30.5,76.47,24.51,72.48,20.24Z" fill="none" stroke="#0a5977" stroke-miterlimit="10"/>
    <path id="leaf-5" d="M47.57,14.35c-3,1.46-5.77-6.06-4.9-9.85C44.88,3.4,52.27,10.89,47.57,14.35Z" fill="none" stroke="#0a5977" stroke-miterlimit="10"/>
    <path id="leaf-6" d="M46.66,16.15c-2.55-2.08-7,4.64-7,8.52C41.62,26.23,50.48,20.56,46.66,16.15Z" fill="none" stroke="#0a5977" stroke-miterlimit="10"/>
    <path id="leaf-7" d="M25.27,10C22.56,11.88,18.71,4.82,19,1,21.07-.44,29.45,5.94,25.27,10Z" fill="none" stroke="#0a5977" stroke-miterlimit="10"/>
    <path id="leaf-8" d="M25.23,12.05c-2.72-1.85-6.52,5.24-6.16,9.11C21.12,22.54,29.44,16.1,25.23,12.05Z" fill="none" stroke="#0a5977" stroke-miterlimit="10"/>
  </g>
  <g id="flower">
    <path d="M13.6,12.1c.49-5-8-10.84-9.26-7.95-2.59,5.77,9.26,8,9.26,8S1.24,7.81,1.46,12.9c.3,7.07,12.14-.8,12.14-.8S2,18,6.63,21.46c5.68,3.58,7-9.36,7-9.36" fill="none" stroke="#d25ef1" stroke-miterlimit="10"/>
  </g>
</svg>